<?xml version="1.0" standalone="no"?>
<!DOCTYPE svg PUBLIC "-//W3C//DTD SVG 20010904//EN"
 "http://www.w3.org/TR/2001/REC-SVG-20010904/DTD/svg10.dtd">
<svg version="1.0" xmlns="http://www.w3.org/2000/svg"
 width="704.000000pt" height="704.000000pt" viewBox="0 0 704.000000 704.000000"
 preserveAspectRatio="xMidYMid meet">
<metadata>
Created by potrace 1.14, written by Peter Selinger 2001-2017
</metadata>
<g transform="translate(0.000000,704.000000) scale(0.100000,-0.100000)"
fill="#000000" stroke="none">
<path d="M2055 6960 l-60 -5 1 -1040 c0 -572 -2 -1046 -4 -1052 -3 -10 -172
-13 -798 -13 l-794 0 0 -2385 0 -2385 23 -1 c12 -1 27 0 32 1 6 1 30 2 55 1
25 0 79 0 120 0 41 0 80 0 85 0 9 0 101 0 163 0 12 0 58 -1 101 -1 44 -1 85 1
90 5 6 3 11 2 11 -2 0 -5 26 -6 58 -3 31 3 76 3 99 -1 24 -3 43 -1 43 3 0 5 5
6 10 3 6 -4 48 -6 93 -5 45 1 87 1 92 1 15 0 107 0 130 0 99 0 182 0 193 0 6
0 50 0 97 0 120 0 117 0 204 -1 44 -1 85 1 90 5 6 3 11 1 11 -5 0 -6 4 -9 9
-5 6 3 47 5 93 4 46 0 101 0 123 1 22 2 48 2 58 2 96 -4 178 -3 186 3 6 3 11
1 11 -5 0 -6 4 -9 9 -5 6 3 47 5 93 4 46 0 101 0 123 1 22 2 48 2 58 2 96 -4
178 -3 186 3 6 3 11 2 11 -4 0 -7 8 -7 24 -1 13 5 26 6 29 4 3 -3 43 -5 89 -4
45 1 88 1 93 1 15 0 107 0 130 0 100 0 183 0 195 0 8 0 53 0 100 0 47 0 90 1
95 0 9 0 95 0 163 0 12 0 58 -1 101 -1 44 -1 85 1 90 5 6 3 11 1 11 -5 0 -6 4
-8 10 -5 8 5 50 6 150 4 57 -1 192 0 225 1 22 2 48 2 58 2 96 -4 178 -3 186 3
6 3 11 1 11 -5 0 -6 4 -9 9 -5 6 3 45 5 88 5 43 -1 86 -1 96 -1 9 0 47 0 85 0
37 -1 85 0 107 1 22 2 48 2 58 2 96 -4 178 -3 186 3 6 3 11 1 11 -5 0 -6 4 -8
10 -5 8 5 50 6 150 4 57 -1 192 0 225 1 22 2 48 2 58 2 96 -4 178 -3 186 3 6
3 11 2 11 -2 0 -5 26 -6 58 -3 31 3 76 3 100 -1 23 -3 42 -3 42 0 0 4 19 5 43
3 l42 -4 0 1286 c0 850 -3 1286 -10 1287 -5 1 -251 2 -545 3 l-535 1 -3 1148
c-1 631 1 1147 6 1147 6 0 79 -75 296 -304 l46 -50 68 71 c37 39 100 105 140
148 l73 79 -48 49 c-61 63 -78 81 -253 266 -80 85 -165 175 -190 201 -25 26
-101 106 -170 179 -69 73 -137 145 -151 161 l-27 28 -133 -141 c-206 -217
-207 -217 -334 -352 -123 -131 -154 -163 -287 -304 -43 -44 -78 -84 -78 -89 0
-8 46 -58 193 -211 l80 -84 89 94 c179 188 209 219 213 219 3 0 5 -506 5
-1125 0 -893 -3 -1125 -12 -1126 -40 -4 -988 -3 -989 1 -1 3 -2 495 -3 1095
l-1 1090 -761 3 -761 2 4 663 c2 364 5 743 6 842 l2 180 1278 1 1277 1 1 -66
c0 -36 0 -187 0 -334 0 -247 2 -267 17 -255 9 7 56 53 104 103 l88 89 105
-104 105 -105 0 547 c0 514 -1 547 -17 547 -10 0 -47 0 -83 0 -36 0 -75 0 -87
0 -13 0 -59 1 -102 1 -44 1 -85 -1 -90 -5 -6 -3 -11 -1 -11 5 0 6 -4 9 -9 5
-6 -3 -47 -5 -93 -4 -46 0 -101 0 -123 -1 -22 -2 -48 -2 -57 -2 -97 4 -179 3
-187 -3 -6 -3 -11 -1 -11 5 0 6 -4 9 -9 5 -6 -3 -47 -5 -93 -4 -46 0 -101 0
-123 -1 -22 -2 -48 -2 -57 -2 -97 4 -179 3 -187 -3 -6 -3 -11 -1 -11 5 0 6 -4
9 -9 5 -6 -3 -47 -5 -93 -4 -46 0 -101 0 -123 -1 -22 -2 -48 -2 -57 -2 -97 4
-179 3 -187 -3 -6 -3 -11 -1 -11 5 0 6 -4 9 -9 5 -6 -3 -47 -5 -93 -4 -46 0
-101 0 -123 -1 -22 -2 -48 -2 -57 -2 -97 4 -179 3 -187 -3 -6 -3 -11 -1 -11 5
0 6 -4 9 -9 5 -6 -3 -47 -5 -93 -4 -46 0 -101 0 -123 -1 -22 -2 -48 -2 -57 -2
-97 4 -179 3 -187 -3 -6 -3 -11 -1 -11 5 0 6 -4 9 -9 5 -6 -3 -47 -5 -93 -4
-46 0 -101 0 -123 -1 -22 -2 -48 -2 -57 -2 -94 4 -179 3 -187 -2 -5 -3 -11 -3
-13 1 -1 5 -30 6 -63 3z m-60 -4496 l0 -1961 -585 1 -585 1 -1 1955 c-1 1075
0 1958 2 1961 2 4 266 6 586 5 l583 -1 0 -1961z m1505 1955 c4 -5 5 -3855 1
-3905 -1 -8 -155 -11 -563 -10 l-563 1 2 260 c0 143 4 708 8 1255 3 547 8
1281 10 1630 3 349 5 660 6 690 0 30 0 60 -1 65 -1 6 -2 13 -1 16 2 9 1095 7
1101 -2z m1423 -2189 c4 0 7 -389 7 -863 l0 -864 -502 1 -503 1 0 855 c-1 470
0 860 2 865 2 7 174 9 496 8 270 -1 495 -2 500 -3z m1137 -301 c3 -167 4 -556
2 -865 l-2 -561 -335 0 -335 0 0 863 0 863 47 3 c27 2 176 2 333 2 l285 -1 5
-304z"/>
</g>
</svg>
