<svg width="10" height="18" viewBox="0 0 10 18" fill="none" xmlns="http://www.w3.org/2000/svg">
<g clip-path="url(#clip0_157_441)">
<g clip-path="url(#clip1_157_441)">
<path d="M1.85118 17.1823C1.47434 17.5861 0.841547 17.6079 0.437797 17.2311C0.0340462 16.8542 0.0122261 16.2214 0.389056 15.8177L1.85118 17.1823ZM8.12012 9L8.85117 8.31768C9.20977 8.70189 9.20977 9.29811 8.85117 9.68232L8.12012 9ZM0.389067 2.18232C0.0122271 1.77857 0.0340462 1.14578 0.437797 0.768949C0.841547 0.392114 1.47434 0.413934 1.85118 0.817685L0.389067 2.18232ZM0.389056 15.8177L7.38907 8.31768L8.85117 9.68232L1.85118 17.1823L0.389056 15.8177ZM7.38907 9.68232L0.389067 2.18232L1.85118 0.817685L8.85117 8.31768L7.38907 9.68232Z" fill="#A2A2A2"/>
</g>
</g>
<defs>
<clipPath id="clip0_157_441">
<rect width="9" height="17" fill="white" transform="matrix(-1 0 0 1 9.12012 0.5)"/>
</clipPath>
<clipPath id="clip1_157_441">
<rect width="9" height="17" fill="white" transform="matrix(-1 0 0 1 9.12012 0.5)"/>
</clipPath>
</defs>
</svg>
