<svg  width="28" height="20" viewBox="0 0 28 20" fill="none" xmlns="http://www.w3.org/2000/svg">
<path d="M18.44 9.70507L27.8182 15.6338V3.52595L18.44 9.70507ZM0 3.52595V15.6338L9.37821 9.70507L0 3.52595ZM26.0795 0H1.73864C0.871057 0 0.182557 0.646773 0.0521591 1.47958L13.9091 10.6092L27.766 1.47958C27.6356 0.646773 26.9471 0 26.0795 0ZM16.8474 10.7552L14.3872 12.3756C14.2452 12.4689 14.079 12.5185 13.9091 12.5182C13.7422 12.5182 13.577 12.4712 13.431 12.3756L10.9708 10.7535L0.0556364 17.6576C0.189511 18.4834 0.874534 19.125 1.73864 19.125H26.0795C26.9436 19.125 27.6287 18.4834 27.7625 17.6576L16.8474 10.7552Z" fill="white"/>
</svg>
