<svg width="170" height="48" viewBox="0 0 170 48" fill="#F5F5F5" xmlns="http://www.w3.org/2000/svg">
<path fill-rule="evenodd" fill="inherit" clip-rule="evenodd" d="M28.5747 7.35887L29.8851 6.03985L31.1954 7.35887V0.499971H9.96782V13.6901H1.31902H0V15.0091V42.1809V43.4999H1.31902H9.96782V43.5H12.3264V43.4999H19.3936V43.5H20.7126H36.6988H38.0178V42.181V28.727V27.408H36.6988H31.195V12.9644L33.3792 15.2731L35.1264 13.4263L29.885 7.88657L24.6436 13.4263L26.3908 15.2731L28.3122 13.2422V27.408H22.0311V15.0091V13.6901H20.7121H12.52L12.5885 3.13801H28.5747V7.35887ZM9.96782 16.3281H2.63804V40.8619H9.96782V16.3281ZM12.3436 40.8619L12.5029 16.3281H19.3931V40.8619H12.3436ZM22.0316 30.046H28.3122V40.8619H31.195V30.046H35.3798V40.862H22.0316V30.046Z" />
<path d="M56.4298 6.90909V9.63636H48.5462V6.90909H56.4298ZM50.336 3.77273H53.9667V15.9773C53.9667 16.3125 54.0178 16.5739 54.1201 16.7614C54.2224 16.9432 54.3644 17.071 54.5462 17.1449C54.7337 17.2187 54.9496 17.2557 55.194 17.2557C55.3644 17.2557 55.5349 17.2415 55.7053 17.2131C55.8758 17.179 56.0065 17.1534 56.0974 17.1364L56.6684 19.8381C56.4866 19.8949 56.2309 19.9602 55.9013 20.0341C55.5718 20.1136 55.1712 20.1619 54.6996 20.179C53.8246 20.2131 53.0576 20.0966 52.3985 19.8295C51.7451 19.5625 51.2366 19.1477 50.8729 18.5852C50.5093 18.0227 50.3303 17.3125 50.336 16.4545V3.77273ZM62.0478 20.2472C61.2125 20.2472 60.4682 20.1023 59.8148 19.8125C59.1614 19.517 58.6444 19.0824 58.2637 18.5085C57.8887 17.929 57.7012 17.2074 57.7012 16.3438C57.7012 15.6165 57.8347 15.0057 58.1017 14.5114C58.3688 14.017 58.7324 13.6193 59.1927 13.3182C59.6529 13.017 60.1756 12.7898 60.7608 12.6364C61.3517 12.483 61.9711 12.375 62.6188 12.3125C63.3802 12.233 63.9938 12.1591 64.4597 12.0909C64.9256 12.017 65.2637 11.9091 65.4739 11.767C65.6841 11.625 65.7892 11.4148 65.7892 11.1364V11.0852C65.7892 10.5455 65.6188 10.1278 65.2779 9.83239C64.9427 9.53693 64.4654 9.3892 63.8461 9.3892C63.1927 9.3892 62.6728 9.53409 62.2864 9.82386C61.9 10.108 61.6444 10.4659 61.5194 10.8977L58.1614 10.625C58.3319 9.82955 58.6671 9.14205 59.1671 8.5625C59.6671 7.97727 60.312 7.52841 61.1017 7.21591C61.8972 6.89773 62.8177 6.73864 63.8631 6.73864C64.5904 6.73864 65.2864 6.82386 65.9512 6.99432C66.6216 7.16477 67.2154 7.42898 67.7324 7.78693C68.2552 8.14489 68.6671 8.60511 68.9682 9.16761C69.2694 9.72443 69.4199 10.392 69.4199 11.1705V20H65.9767V18.1847H65.8745C65.6642 18.5938 65.383 18.9545 65.0307 19.267C64.6784 19.5739 64.2552 19.8153 63.7608 19.9915C63.2665 20.1619 62.6955 20.2472 62.0478 20.2472ZM63.0875 17.7415C63.6216 17.7415 64.0932 17.6364 64.5023 17.4261C64.9114 17.2102 65.2324 16.9205 65.4654 16.5568C65.6983 16.1932 65.8148 15.7812 65.8148 15.321V13.9318C65.7012 14.0057 65.5449 14.0739 65.3461 14.1364C65.1529 14.1932 64.9341 14.2472 64.6898 14.2983C64.4455 14.3437 64.2012 14.3864 63.9569 14.4261C63.7125 14.4602 63.4909 14.4915 63.2921 14.5199C62.8659 14.5824 62.4938 14.6818 62.1756 14.8182C61.8574 14.9545 61.6103 15.1392 61.4341 15.3722C61.258 15.5994 61.1699 15.8835 61.1699 16.2244C61.1699 16.7188 61.3489 17.0966 61.7069 17.358C62.0705 17.6136 62.5307 17.7415 63.0875 17.7415ZM82.6487 10.642L79.3249 10.8466C79.2681 10.5625 79.1459 10.3068 78.9584 10.0795C78.7709 9.84659 78.5237 9.66193 78.2169 9.52557C77.9158 9.38352 77.555 9.3125 77.1345 9.3125C76.572 9.3125 76.0976 9.43182 75.7112 9.67045C75.3249 9.90341 75.1317 10.2159 75.1317 10.608C75.1317 10.9205 75.2567 11.1847 75.5067 11.4006C75.7567 11.6165 76.1857 11.7898 76.7936 11.9205L79.1629 12.3977C80.4357 12.6591 81.3845 13.0795 82.0095 13.6591C82.6345 14.2386 82.947 15 82.947 15.9432C82.947 16.8011 82.6942 17.554 82.1885 18.2017C81.6885 18.8494 81.001 19.3551 80.126 19.7188C79.2567 20.0767 78.2538 20.2557 77.1175 20.2557C75.3845 20.2557 74.0038 19.8949 72.9754 19.1733C71.9527 18.446 71.3533 17.4574 71.1771 16.2074L74.7482 16.0199C74.8561 16.5483 75.1175 16.9517 75.5323 17.2301C75.947 17.5028 76.4783 17.6392 77.126 17.6392C77.7624 17.6392 78.2737 17.517 78.6601 17.2727C79.0521 17.0227 79.251 16.7017 79.2567 16.3097C79.251 15.9801 79.1118 15.7102 78.8391 15.5C78.5663 15.2841 78.1459 15.1193 77.5777 15.0057L75.3107 14.554C74.0323 14.2983 73.0806 13.8551 72.4556 13.2244C71.8362 12.5937 71.5266 11.7898 71.5266 10.8125C71.5266 9.97159 71.7538 9.24716 72.2084 8.6392C72.6686 8.03125 73.3135 7.5625 74.1431 7.23295C74.9783 6.90341 75.9556 6.73864 77.0749 6.73864C78.7283 6.73864 80.0294 7.08807 80.9783 7.78693C81.9328 8.4858 82.4896 9.4375 82.6487 10.642ZM88.3839 12.4318V20H84.7532V2.54545H88.2817V9.21875H88.4351C88.7305 8.44602 89.2078 7.84091 89.8669 7.40341C90.526 6.96023 91.3527 6.73864 92.347 6.73864C93.2561 6.73864 94.0487 6.9375 94.7248 7.33523C95.4067 7.72727 95.9351 8.29261 96.3101 9.03125C96.6908 9.7642 96.8783 10.642 96.8726 11.6648V20H93.2419V12.3125C93.2476 11.5057 93.043 10.8778 92.6283 10.429C92.2192 9.98011 91.6453 9.75568 90.9067 9.75568C90.4123 9.75568 89.9748 9.8608 89.5942 10.071C89.2192 10.2812 88.9237 10.5881 88.7078 10.9915C88.4976 11.3892 88.3896 11.8693 88.3839 12.4318ZM49.5349 42V24.5455H53.1655V31.108H53.2763C53.4354 30.7557 53.6655 30.3977 53.9667 30.0341C54.2735 29.6648 54.6712 29.358 55.1599 29.1136C55.6542 28.8636 56.2678 28.7386 57.0008 28.7386C57.9553 28.7386 58.836 28.9886 59.6428 29.4886C60.4496 29.983 61.0945 30.7301 61.5775 31.7301C62.0604 32.7244 62.3019 33.9716 62.3019 35.4716C62.3019 36.9318 62.0661 38.1648 61.5945 39.1705C61.1286 40.1705 60.4923 40.929 59.6854 41.446C58.8843 41.9574 57.9866 42.2131 56.9923 42.2131C56.2877 42.2131 55.6883 42.0966 55.194 41.8636C54.7053 41.6307 54.3048 41.3381 53.9923 40.9858C53.6798 40.6278 53.4411 40.267 53.2763 39.9034H53.1144V42H49.5349ZM53.0888 35.4545C53.0888 36.233 53.1968 36.9119 53.4127 37.4915C53.6286 38.071 53.9411 38.5227 54.3502 38.8466C54.7593 39.1648 55.2565 39.3239 55.8417 39.3239C56.4326 39.3239 56.9326 39.1619 57.3417 38.8381C57.7508 38.5085 58.0604 38.054 58.2707 37.4744C58.4866 36.8892 58.5945 36.2159 58.5945 35.4545C58.5945 34.6989 58.4894 34.0341 58.2792 33.4602C58.069 32.8864 57.7593 32.4375 57.3502 32.1136C56.9411 31.7898 56.4383 31.6278 55.8417 31.6278C55.2508 31.6278 54.7508 31.7841 54.3417 32.0966C53.9383 32.4091 53.6286 32.8523 53.4127 33.4261C53.1968 34 53.0888 34.6761 53.0888 35.4545ZM72.6394 36.4261V28.9091H76.2701V42H72.7843V39.6222H72.6479C72.3525 40.3892 71.861 41.0057 71.1735 41.4716C70.4917 41.9375 69.6593 42.1705 68.6763 42.1705C67.8013 42.1705 67.0314 41.9716 66.3667 41.5739C65.7019 41.1761 65.182 40.6108 64.807 39.8778C64.4377 39.1449 64.2502 38.267 64.2445 37.2443V28.9091H67.8752V36.5966C67.8809 37.3693 68.0882 37.9801 68.4973 38.429C68.9064 38.8778 69.4547 39.1023 70.1422 39.1023C70.5797 39.1023 70.9888 39.0028 71.3695 38.804C71.7502 38.5994 72.057 38.2983 72.29 37.9006C72.5286 37.5028 72.6451 37.0114 72.6394 36.4261ZM78.6942 42V28.9091H82.3249V42H78.6942ZM80.5181 27.2216C79.9783 27.2216 79.5152 27.0426 79.1288 26.6847C78.7482 26.321 78.5578 25.8864 78.5578 25.3807C78.5578 24.8807 78.7482 24.4517 79.1288 24.0938C79.5152 23.7301 79.9783 23.5483 80.5181 23.5483C81.0578 23.5483 81.5181 23.7301 81.8987 24.0938C82.2851 24.4517 82.4783 24.8807 82.4783 25.3807C82.4783 25.8864 82.2851 26.321 81.8987 26.6847C81.5181 27.0426 81.0578 27.2216 80.5181 27.2216ZM88.3839 24.5455V42H84.7532V24.5455H88.3839ZM95.6362 42.2131C94.6419 42.2131 93.7413 41.9574 92.9345 41.446C92.1333 40.929 91.497 40.1705 91.0254 39.1705C90.5595 38.1648 90.3265 36.9318 90.3265 35.4716C90.3265 33.9716 90.568 32.7244 91.0509 31.7301C91.5339 30.7301 92.1759 29.983 92.9771 29.4886C93.7839 28.9886 94.6674 28.7386 95.6277 28.7386C96.3606 28.7386 96.9714 28.8636 97.46 29.1136C97.9544 29.358 98.3521 29.6648 98.6532 30.0341C98.96 30.3977 99.193 30.7557 99.3521 31.108H99.4629V24.5455H103.085V42H99.5055V39.9034H99.3521C99.1816 40.267 98.9402 40.6278 98.6277 40.9858C98.3208 41.3381 97.9203 41.6307 97.4259 41.8636C96.9373 42.0966 96.3407 42.2131 95.6362 42.2131ZM96.7867 39.3239C97.372 39.3239 97.8663 39.1648 98.2697 38.8466C98.6788 38.5227 98.9913 38.071 99.2072 37.4915C99.4288 36.9119 99.5396 36.233 99.5396 35.4545C99.5396 34.6761 99.4316 34 99.2157 33.4261C98.9998 32.8523 98.6873 32.4091 98.2782 32.0966C97.8691 31.7841 97.372 31.6278 96.7867 31.6278C96.1902 31.6278 95.6873 31.7898 95.2782 32.1136C94.8691 32.4375 94.5595 32.8864 94.3492 33.4602C94.139 34.0341 94.0339 34.6989 94.0339 35.4545C94.0339 36.2159 94.139 36.8892 94.3492 37.4744C94.5652 38.054 94.8748 38.5085 95.2782 38.8381C95.6873 39.1619 96.1902 39.3239 96.7867 39.3239ZM105.59 42V28.9091H109.221V42H105.59ZM107.414 27.2216C106.874 27.2216 106.411 27.0426 106.025 26.6847C105.644 26.321 105.454 25.8864 105.454 25.3807C105.454 24.8807 105.644 24.4517 106.025 24.0938C106.411 23.7301 106.874 23.5483 107.414 23.5483C107.954 23.5483 108.414 23.7301 108.795 24.0938C109.181 24.4517 109.374 24.8807 109.374 25.3807C109.374 25.8864 109.181 26.321 108.795 26.6847C108.414 27.0426 107.954 27.2216 107.414 27.2216ZM115.28 34.4318V42H111.649V28.9091H115.109V31.2188H115.263C115.553 30.4574 116.038 29.8551 116.72 29.4119C117.402 28.9631 118.229 28.7386 119.2 28.7386C120.109 28.7386 120.902 28.9375 121.578 29.3352C122.254 29.733 122.78 30.3011 123.155 31.0398C123.53 31.7727 123.717 32.6477 123.717 33.6648V42H120.087V34.3125C120.092 33.5114 119.888 32.8864 119.473 32.4375C119.058 31.983 118.487 31.7557 117.76 31.7557C117.271 31.7557 116.84 31.8608 116.465 32.071C116.095 32.2812 115.805 32.5881 115.595 32.9915C115.391 33.3892 115.286 33.8693 115.28 34.4318ZM131.997 47.1818C130.82 47.1818 129.812 47.0199 128.971 46.696C128.136 46.3778 127.471 45.9432 126.977 45.392C126.482 44.8409 126.161 44.2216 126.014 43.5341L129.372 43.0824C129.474 43.3438 129.636 43.5881 129.857 43.8153C130.079 44.0426 130.372 44.2244 130.735 44.3608C131.105 44.5028 131.553 44.5739 132.082 44.5739C132.872 44.5739 133.522 44.3807 134.034 43.9943C134.551 43.6136 134.809 42.9744 134.809 42.0767V39.6818H134.656C134.497 40.0455 134.258 40.3892 133.94 40.7131C133.622 41.0369 133.213 41.3011 132.713 41.5057C132.213 41.7102 131.616 41.8125 130.923 41.8125C129.94 41.8125 129.045 41.5852 128.238 41.1307C127.437 40.6705 126.798 39.9687 126.32 39.0256C125.849 38.0767 125.613 36.8778 125.613 35.429C125.613 33.946 125.855 32.7074 126.338 31.7131C126.82 30.7187 127.463 29.9744 128.264 29.4801C129.07 28.9858 129.954 28.7386 130.914 28.7386C131.647 28.7386 132.261 28.8636 132.755 29.1136C133.249 29.358 133.647 29.6648 133.948 30.0341C134.255 30.3977 134.491 30.7557 134.656 31.108H134.792V28.9091H138.397V42.1278C138.397 43.2415 138.124 44.1733 137.579 44.9233C137.034 45.6733 136.278 46.2358 135.312 46.6108C134.352 46.9915 133.247 47.1818 131.997 47.1818ZM132.073 39.0852C132.659 39.0852 133.153 38.9403 133.556 38.6506C133.965 38.3551 134.278 37.9347 134.494 37.3892C134.715 36.8381 134.826 36.179 134.826 35.4119C134.826 34.6449 134.718 33.9801 134.502 33.4176C134.286 32.8494 133.974 32.4091 133.565 32.0966C133.156 31.7841 132.659 31.6278 132.073 31.6278C131.477 31.6278 130.974 31.7898 130.565 32.1136C130.156 32.4318 129.846 32.875 129.636 33.4432C129.426 34.0114 129.32 34.6676 129.32 35.4119C129.32 36.1676 129.426 36.821 129.636 37.3722C129.852 37.9176 130.161 38.3409 130.565 38.642C130.974 38.9375 131.477 39.0852 132.073 39.0852Z" fill="inherit"/>
</svg>
